<svg width="120" height="120" viewBox="0 0 120 120" fill="none" xmlns="http://www.w3.org/2000/svg">
<path d="M31.6472 62.9685L35.6777 66.999L68.0014 34.6754L63.9708 30.6449L31.6472 62.9685Z" fill="#000001"/>
<path d="M64.8812 38.9125L72.9688 47L76.9993 42.9695L68.9117 34.882L64.8812 38.9125Z" fill="#000001"/>
<path d="M51.7367 58.9125L55.7672 62.943L59.7977 58.9125L63.8547 62.9695L67.9118 58.9125L63.8547 54.8554L71.9423 46.7679L67.9118 42.7374L51.7367 58.9125Z" fill="#000001"/>
<path d="M67.9382 59.9695L71.9688 64L75.9993 59.9695L71.9688 55.939L67.9382 59.9695Z" fill="#000001"/>
<path d="M75.9129 59.9695L79.9434 64L84.0004 59.943L79.9699 55.9125L75.9129 59.9695Z" fill="#000001"/>
<path d="M82.9129 59.9695L86.9434 64L91.0004 59.943L86.9699 55.9125L82.9129 59.9695Z" fill="#000001"/>
<path d="M60.0269 68.9236L55.9964 64.8931L51.9393 68.9501L68.0879 85.0986L72.1449 81.0416L64.0574 72.9541L68.0879 68.9236L64.0574 64.8931L60.0269 68.9236Z" fill="#000001"/>
<path d="M68.0875 68.9235L72.1445 72.9805L76.175 68.95L72.118 64.8929L68.0875 68.9235Z" fill="#000001"/>
<path d="M33.6197 64.6764L65.9434 97L70.0004 92.943L37.6768 60.6194L33.6197 64.6764Z" fill="#000001"/>
<path d="M90.8832 59.9115L98.9707 67.999L103.001 63.9685L94.9137 55.881L90.8832 59.9115Z" fill="#000001"/>
<path d="M76.1746 68.95L80.2051 72.9805L84.2621 68.9235L80.2316 64.8929L76.1746 68.95Z" fill="#000001"/>
<path d="M82.9129 68.95L86.9434 72.9805L91.0004 68.9235L86.9699 64.8929L82.9129 68.95Z" fill="#000001"/>
<path d="M91.2625 68.9236L95.293 72.9541L103.381 64.8666L99.35 60.8361L91.2625 68.9236Z" fill="#000001"/>
<path d="M66.03 88.1599L70.0605 92.1904L78.1216 84.1294L74.0911 80.0989L66.03 88.1599Z" fill="#000001"/>
</svg>
