<svg width="120" height="120" viewBox="0 0 120 120" fill="none" xmlns="http://www.w3.org/2000/svg">
<path d="M88.3528 57.0315L84.3223 53.001L51.9987 85.3246L56.0292 89.3551L88.3528 57.0315Z" fill="#000001"/>
<path d="M55.1188 81.0875L47.0312 73L43.0007 77.0305L51.0883 85.118L55.1188 81.0875Z" fill="#000001"/>
<path d="M68.2633 61.0875L64.2328 57.057L60.2023 61.0875L56.1453 57.0305L52.0882 61.0875L56.1453 65.1446L48.0577 73.2321L52.0882 77.2626L68.2633 61.0875Z" fill="#000001"/>
<path d="M52.0618 60.0305L48.0312 56L44.0007 60.0305L48.0312 64.061L52.0618 60.0305Z" fill="#000001"/>
<path d="M44.0871 60.0305L40.0566 56L35.9996 60.057L40.0301 64.0875L44.0871 60.0305Z" fill="#000001"/>
<path d="M37.0871 60.0305L33.0566 56L28.9996 60.057L33.0301 64.0875L37.0871 60.0305Z" fill="#000001"/>
<path d="M59.9731 51.0764L64.0036 55.1069L68.0607 51.0499L51.9121 34.9014L47.8551 38.9584L55.9426 47.0459L51.9121 51.0764L55.9426 55.1069L59.9731 51.0764Z" fill="#000001"/>
<path d="M51.9125 51.0766L47.8555 47.0195L43.825 51.05L47.882 55.1071L51.9125 51.0766Z" fill="#000001"/>
<path d="M86.3803 55.3236L54.0566 23L49.9996 27.057L82.3232 59.3806L86.3803 55.3236Z" fill="#000001"/>
<path d="M29.1168 60.0885L21.0293 52.001L16.9988 56.0315L25.0863 64.119L29.1168 60.0885Z" fill="#000001"/>
<path d="M43.8254 51.05L39.7949 47.0195L35.7379 51.0766L39.7684 55.1071L43.8254 51.05Z" fill="#000001"/>
<path d="M37.0871 51.05L33.0566 47.0195L28.9996 51.0766L33.0301 55.1071L37.0871 51.05Z" fill="#000001"/>
<path d="M28.7375 51.0764L24.707 47.0459L16.6195 55.1334L20.65 59.1639L28.7375 51.0764Z" fill="#000001"/>
<path d="M53.97 31.8401L49.9395 27.8096L41.8784 35.8706L45.9089 39.9011L53.97 31.8401Z" fill="#000001"/>
</svg>
